<svg viewBox="0 0 512 512" xmlns="http://www.w3.org/2000/svg" fill-rule="evenodd" clip-rule="evenodd" stroke-linejoin="round" stroke-miterlimit="2"><path d="M256.492 505.505h-7.396l50.789-140.039h70.512c6.246 0 12.328-2.054 18.245-6.163 5.917-4.11 9.862-9.123 11.834-15.04l54.734-152.366c4.93-12.82 4.191-23.586-2.22-32.298-6.41-8.711-16.189-13.067-29.338-13.067h-97.633L245.15 371.877l-46.35 127.218c-27.614-6.574-53.255-17.423-76.923-32.544-23.34-15.122-43.64-33.367-60.898-54.734-17.258-21.367-30.654-45.365-40.187-71.992C10.931 313.527 6 285.585 6 256c0-28.6 4.602-55.884 13.807-81.853 9.205-25.641 22.025-48.981 38.461-70.02 16.437-21.039 35.832-39.119 58.186-54.24 22.353-15.122 46.68-26.299 72.978-33.53l-47.338 131.162L61.72 365.466h52.761l67.554-185.403h39.94l-67.553 185.403h52.761l63.116-172.583c4.602-12.491 3.78-23.175-2.465-32.051-6.246-8.876-15.944-13.314-29.093-13.314h-44.378L245.15 6.493h11.341c34.517 0 66.897 6.575 97.14 19.724 30.243 13.15 56.624 30.983 79.142 53.5 22.518 22.519 40.351 48.9 53.5 79.143 13.15 30.243 19.724 62.623 19.724 97.14 0 34.516-6.574 66.896-19.723 97.139-13.15 30.243-30.983 56.623-53.501 79.142-22.518 22.518-48.899 40.351-79.142 53.5-30.243 13.15-62.623 19.724-97.14 19.724zm150.394-326.429h-39.94l-55.72 152.86h39.94l55.72-152.86z" fill="#024ad8" fill-rule="nonzero"/></svg>